<?xml version="1.0" encoding="UTF-8"?>
<svg xmlns="http://www.w3.org/2000/svg" xmlns:xlink="http://www.w3.org/1999/xlink" width="600pt" height="600pt" viewBox="0 0 600 600" version="1.1">
<g id="surface1">
<path style="fill:none;stroke-width:1;stroke-linecap:butt;stroke-linejoin:miter;stroke:rgb(0%,0%,0%);stroke-opacity:1;stroke-miterlimit:10;" d="M 23.492188 120 L 21.697917 127.75 L 21.664062 127.75 C 21.710938 126.597656 21.734375 125.519531 21.734375 124.511719 L 21.734375 120 L 20.817708 120 L 20.817708 129.28125 L 22.242188 129.28125 L 23.960938 121.898438 L 23.986979 121.898438 L 25.755208 129.28125 L 27.184896 129.28125 L 27.184896 120 L 26.213542 120 L 26.213542 124.589844 C 26.213542 125.050781 26.21875 125.652344 26.234375 126.390625 C 26.25 127.132812 26.265625 127.582031 26.276042 127.738281 L 26.242188 127.738281 L 24.385417 120 Z M 27.997396 127.019531 L 29.080729 127.019531 L 30.033854 123.039062 C 30.177083 122.472656 30.273438 121.941406 30.320312 121.441406 L 30.354167 121.441406 C 30.380208 121.671875 30.427083 121.957031 30.494792 122.289062 C 30.5625 122.621094 30.919271 124.199219 31.570312 127.019531 L 32.643229 127.019531 L 30.643229 119.066406 C 30.278646 117.605469 29.671875 116.875 28.822917 116.875 C 28.601562 116.875 28.388021 116.914062 28.179688 116.984375 L 28.179688 118.164062 C 28.328125 118.113281 28.5 118.089844 28.690104 118.089844 C 29.169271 118.089844 29.507812 118.507812 29.703125 119.339844 L 29.877604 120 Z M 39.723958 120 L 38.726562 120 L 38.726562 124.316406 C 38.726562 124.859375 38.653646 125.261719 38.507812 125.527344 C 38.361979 125.796875 38.132812 125.929688 37.815104 125.929688 C 37.395833 125.929688 37.088542 125.742188 36.893229 125.371094 C 36.697917 125 36.601562 124.375 36.601562 123.496094 L 36.601562 120 L 35.606771 120 L 35.606771 127.019531 L 36.385417 127.019531 L 36.526042 126.101562 L 36.575521 126.101562 C 36.716146 126.433594 36.916667 126.691406 37.177083 126.875 C 37.4375 127.054688 37.723958 127.148438 38.039062 127.148438 C 39.161458 127.148438 39.723958 126.289062 39.723958 124.578125 Z M 45.257812 123.523438 C 45.257812 122.375 45.0625 121.480469 44.669271 120.835938 C 44.278646 120.195312 43.731771 119.875 43.03125 119.875 C 42.59375 119.875 42.208333 120.019531 41.872396 120.316406 C 41.536458 120.613281 41.278646 121.039062 41.098958 121.59375 C 40.916667 122.148438 40.828125 122.789062 40.828125 123.523438 C 40.828125 124.660156 41.020833 125.550781 41.411458 126.1875 C 41.802083 126.828125 42.348958 127.148438 43.057292 127.148438 C 43.734375 127.148438 44.270833 126.820312 44.666667 126.167969 C 45.059896 125.511719 45.257812 124.632812 45.257812 123.523438 Z M 41.851562 123.523438 C 41.851562 121.902344 42.25 121.09375 43.049479 121.09375 C 43.838542 121.09375 44.234375 121.902344 44.234375 123.523438 C 44.234375 125.125 43.835938 125.929688 43.041667 125.929688 C 42.622396 125.929688 42.320312 125.722656 42.132812 125.304688 C 41.945312 124.890625 41.851562 124.296875 41.851562 123.523438 Z M 49.544271 122 C 49.544271 121.3125 49.377604 120.789062 49.046875 120.421875 C 48.713542 120.054688 48.236979 119.875 47.614583 119.875 C 46.992188 119.875 46.492188 120.015625 46.111979 120.296875 L 46.111979 121.585938 C 46.664062 121.207031 47.174479 121.015625 47.648438 121.015625 C 48.260417 121.015625 48.567708 121.292969 48.567708 121.847656 C 48.567708 122.023438 48.533854 122.171875 48.466146 122.292969 C 48.398438 122.410156 48.286458 122.53125 48.132812 122.660156 C 47.976562 122.785156 47.760417 122.929688 47.484375 123.089844 C 46.945312 123.402344 46.580729 123.71875 46.390625 124.03125 C 46.200521 124.34375 46.104167 124.75 46.104167 125.25 C 46.104167 125.851562 46.265625 126.316406 46.588542 126.648438 C 46.911458 126.980469 47.351562 127.148438 47.908854 127.148438 C 48.458333 127.148438 48.979167 126.980469 49.46875 126.644531 L 49.148438 125.523438 C 48.643229 125.835938 48.21875 125.992188 47.872396 125.992188 C 47.348958 125.992188 47.085938 125.769531 47.085938 125.320312 C 47.085938 125.101562 47.15625 124.914062 47.291667 124.761719 C 47.429688 124.609375 47.726562 124.398438 48.1875 124.132812 C 48.572917 123.90625 48.854167 123.703125 49.028646 123.515625 C 49.203125 123.328125 49.333333 123.117188 49.419271 122.871094 C 49.502604 122.628906 49.544271 122.339844 49.544271 122 Z M 52.666667 119.875 C 51.9375 119.875 51.369792 120.191406 50.958333 120.828125 C 50.546875 121.464844 50.34375 122.34375 50.34375 123.460938 C 50.34375 124.605469 50.533854 125.507812 50.914062 126.164062 C 51.294271 126.820312 51.817708 127.148438 52.484375 127.148438 C 53.101562 127.148438 53.591146 126.867188 53.947917 126.304688 C 54.307292 125.742188 54.486979 124.964844 54.486979 123.980469 L 54.486979 123.171875 L 51.367188 123.171875 C 51.380208 122.492188 51.505208 121.96875 51.734375 121.601562 C 51.966146 121.234375 52.291667 121.054688 52.713542 121.054688 C 52.989583 121.054688 53.247396 121.09375 53.484375 121.171875 C 53.723958 121.25 53.979167 121.378906 54.252604 121.5625 L 54.252604 120.347656 C 54.010417 120.175781 53.765625 120.054688 53.515625 119.980469 C 53.268229 119.910156 52.984375 119.875 52.666667 119.875 Z M 52.484375 126.015625 C 52.169271 126.015625 51.914062 125.867188 51.723958 125.566406 C 51.533854 125.265625 51.421875 124.828125 51.385417 124.253906 L 53.507812 124.253906 C 53.502604 124.832031 53.408854 125.273438 53.229167 125.570312 C 53.049479 125.867188 52.799479 126.015625 52.484375 126.015625 Z M 58.861979 120 L 57.867188 120 L 57.867188 127.019531 L 58.861979 127.019531 Z M 57.807292 128.878906 C 57.807292 129.148438 57.856771 129.351562 57.953125 129.496094 C 58.052083 129.640625 58.190104 129.710938 58.369792 129.710938 C 58.544271 129.710938 58.682292 129.640625 58.778646 129.496094 C 58.875 129.351562 58.924479 129.148438 58.924479 128.878906 C 58.924479 128.625 58.877604 128.425781 58.778646 128.28125 C 58.682292 128.132812 58.546875 128.0625 58.369792 128.0625 C 58.190104 128.0625 58.052083 128.132812 57.953125 128.28125 C 57.856771 128.425781 57.807292 128.625 57.807292 128.878906 Z M 63.424479 122 C 63.424479 121.3125 63.257812 120.789062 62.927083 120.421875 C 62.59375 120.054688 62.117188 119.875 61.494792 119.875 C 60.872396 119.875 60.372396 120.015625 59.992188 120.296875 L 59.992188 121.585938 C 60.544271 121.207031 61.054688 121.015625 61.528646 121.015625 C 62.140625 121.015625 62.447917 121.292969 62.447917 121.847656 C 62.447917 122.023438 62.414062 122.171875 62.346354 122.292969 C 62.278646 122.410156 62.166667 122.53125 62.013021 122.660156 C 61.856771 122.785156 61.640625 122.929688 61.364583 123.089844 C 60.825521 123.402344 60.460938 123.71875 60.270833 124.03125 C 60.080729 124.34375 59.984375 124.75 59.984375 125.25 C 59.984375 125.851562 60.145833 126.316406 60.46875 126.648438 C 60.791667 126.980469 61.231771 127.148438 61.789062 127.148438 C 62.338542 127.148438 62.859375 126.980469 63.348958 126.644531 L 63.028646 125.523438 C 62.523438 125.835938 62.098958 125.992188 61.752604 125.992188 C 61.229167 125.992188 60.966146 125.769531 60.966146 125.320312 C 60.966146 125.101562 61.036458 124.914062 61.171875 124.761719 C 61.309896 124.609375 61.606771 124.398438 62.067708 124.132812 C 62.453125 123.90625 62.734375 123.703125 62.908854 123.515625 C 63.083333 123.328125 63.213542 123.117188 63.299479 122.871094 C 63.382812 122.628906 63.424479 122.339844 63.424479 122 Z M 69.895833 122 C 69.895833 121.3125 69.729167 120.789062 69.398438 120.421875 C 69.065104 120.054688 68.588542 119.875 67.966146 119.875 C 67.34375 119.875 66.84375 120.015625 66.463542 120.296875 L 66.463542 121.585938 C 67.015625 121.207031 67.526042 121.015625 68 121.015625 C 68.611979 121.015625 68.919271 121.292969 68.919271 121.847656 C 68.919271 122.023438 68.885417 122.171875 68.817708 122.292969 C 68.75 122.410156 68.638021 122.53125 68.484375 122.660156 C 68.328125 122.785156 68.111979 122.929688 67.835938 123.089844 C 67.296875 123.402344 66.932292 123.71875 66.742188 124.03125 C 66.552083 124.34375 66.455729 124.75 66.455729 125.25 C 66.455729 125.851562 66.617188 126.316406 66.940104 126.648438 C 67.263021 126.980469 67.703125 127.148438 68.260417 127.148438 C 68.809896 127.148438 69.330729 126.980469 69.820312 126.644531 L 69.5 125.523438 C 68.994792 125.835938 68.570312 125.992188 68.223958 125.992188 C 67.700521 125.992188 67.4375 125.769531 67.4375 125.320312 C 67.4375 125.101562 67.507812 124.914062 67.643229 124.761719 C 67.78125 124.609375 68.078125 124.398438 68.539062 124.132812 C 68.924479 123.90625 69.205729 123.703125 69.380208 123.515625 C 69.554688 123.328125 69.684896 123.117188 69.770833 122.871094 C 69.854167 122.628906 69.895833 122.339844 69.895833 122 Z M 74.916667 120 L 73.916667 120 L 73.916667 124.328125 C 73.916667 124.867188 73.848958 125.265625 73.713542 125.53125 C 73.578125 125.796875 73.367188 125.929688 73.078125 125.929688 C 72.695312 125.929688 72.414062 125.742188 72.234375 125.367188 C 72.054688 124.992188 71.966146 124.371094 71.966146 123.496094 L 71.966146 120 L 70.971354 120 L 70.971354 127.019531 L 71.75 127.019531 L 71.890625 126.101562 L 71.940104 126.101562 C 72.070312 126.433594 72.257812 126.691406 72.505208 126.875 C 72.752604 127.054688 73.023438 127.148438 73.320312 127.148438 C 74.039062 127.148438 74.515625 126.78125 74.75 126.042969 L 74.817708 126.042969 C 74.955729 126.390625 75.151042 126.660156 75.401042 126.855469 C 75.653646 127.050781 75.940104 127.148438 76.265625 127.148438 C 76.822917 127.148438 77.231771 126.9375 77.486979 126.511719 C 77.742188 126.089844 77.869792 125.445312 77.869792 124.578125 L 77.869792 120 L 76.875 120 L 76.875 124.328125 C 76.875 124.867188 76.807292 125.265625 76.669271 125.53125 C 76.53125 125.796875 76.320312 125.929688 76.03125 125.929688 C 75.645833 125.929688 75.361979 125.746094 75.184896 125.386719 C 75.005208 125.023438 74.916667 124.46875 74.916667 123.71875 Z M 82.1875 120 L 81.986979 120.976562 L 81.953125 120.976562 C 81.726562 120.550781 81.5 120.257812 81.270833 120.105469 C 81.044271 119.949219 80.75 119.875 80.390625 119.875 C 79.932292 119.875 79.572917 120.058594 79.315104 120.429688 C 79.057292 120.804688 78.927083 121.332031 78.927083 122.011719 C 78.927083 122.734375 79.106771 123.28125 79.466146 123.648438 C 79.822917 124.015625 80.369792 124.21875 81.104167 124.253906 L 81.911458 124.289062 L 81.911458 124.664062 C 81.911458 125.113281 81.841146 125.449219 81.700521 125.671875 C 81.5625 125.894531 81.346354 126.003906 81.052083 126.003906 C 80.8125 126.003906 80.583333 125.953125 80.361979 125.847656 C 80.143229 125.742188 79.929688 125.617188 79.726562 125.472656 L 79.40625 126.539062 C 79.658854 126.738281 79.9375 126.886719 80.239583 126.992188 C 80.541667 127.09375 80.825521 127.148438 81.09375 127.148438 C 81.690104 127.148438 82.138021 126.953125 82.442708 126.5625 C 82.744792 126.171875 82.895833 125.5625 82.895833 124.730469 L 82.895833 120 Z M 80.705729 121.015625 C 81.067708 121.015625 81.356771 121.167969 81.575521 121.46875 C 81.794271 121.773438 81.903646 122.195312 81.903646 122.742188 L 81.903646 123.351562 L 81.302083 123.3125 C 80.833333 123.289062 80.492188 123.171875 80.278646 122.960938 C 80.067708 122.75 79.960938 122.429688 79.960938 122 C 79.960938 121.6875 80.023438 121.445312 80.145833 121.273438 C 80.270833 121.101562 80.455729 121.015625 80.705729 121.015625 Z M 85.278646 120 L 84.283854 120 L 84.283854 129.875 L 85.278646 129.875 Z M 87.695312 120 L 86.700521 120 L 86.700521 129.875 L 87.695312 129.875 Z M 90.151042 121.363281 C 90.015625 120.578125 89.765625 119.5625 89.40625 118.324219 L 88.671875 118.324219 C 88.867188 119.46875 89.013021 120.527344 89.109375 121.511719 L 90.085938 121.511719 Z M 96.466146 120 L 94.671875 127.75 L 94.638021 127.75 C 94.684896 126.597656 94.708333 125.519531 94.708333 124.511719 L 94.708333 120 L 93.791667 120 L 93.791667 129.28125 L 95.216146 129.28125 L 96.934896 121.898438 L 96.960938 121.898438 L 98.729167 129.28125 L 100.158854 129.28125 L 100.158854 120 L 99.1875 120 L 99.1875 124.589844 C 99.1875 125.050781 99.192708 125.652344 99.208333 126.390625 C 99.223958 127.132812 99.239583 127.582031 99.25 127.738281 L 99.216146 127.738281 L 97.359375 120 Z M 100.971354 127.019531 L 102.054688 127.019531 L 103.007812 123.039062 C 103.151042 122.472656 103.247396 121.941406 103.294271 121.441406 L 103.328125 121.441406 C 103.354167 121.671875 103.401042 121.957031 103.46875 122.289062 C 103.536458 122.621094 103.893229 124.199219 104.544271 127.019531 L 105.617188 127.019531 L 103.617188 119.066406 C 103.252604 117.605469 102.645833 116.875 101.796875 116.875 C 101.575521 116.875 101.361979 116.914062 101.153646 116.984375 L 101.153646 118.164062 C 101.302083 118.113281 101.473958 118.089844 101.664062 118.089844 C 102.143229 118.089844 102.481771 118.507812 102.677083 119.339844 L 102.851562 120 Z M 110.46875 119.875 C 109.760417 119.875 109.221354 120.183594 108.854167 120.804688 C 108.484375 121.421875 108.302083 122.3125 108.302083 123.472656 C 108.302083 124.652344 108.494792 125.5625 108.880208 126.195312 C 109.265625 126.828125 109.820312 127.148438 110.549479 127.148438 C 111.041667 127.148438 111.486979 127.011719 111.880208 126.734375 L 111.580729 125.535156 C 111.161458 125.78125 110.8125 125.902344 110.539062 125.902344 C 109.729167 125.902344 109.325521 125.097656 109.325521 123.484375 C 109.325521 122.699219 109.427083 122.105469 109.627604 121.710938 C 109.830729 121.316406 110.125 121.117188 110.515625 121.117188 C 110.958333 121.117188 111.377604 121.28125 111.770833 121.613281 L 111.770833 120.3125 C 111.59375 120.15625 111.403646 120.042969 111.203125 119.976562 C 111 119.90625 110.755208 119.875 110.46875 119.875 Z M 116.986979 120 L 115.989583 120 L 115.989583 124.316406 C 115.989583 124.859375 115.916667 125.261719 115.770833 125.527344 C 115.625 125.796875 115.395833 125.929688 115.078125 125.929688 C 114.661458 125.929688 114.354167 125.742188 114.158854 125.367188 C 113.963542 124.992188 113.864583 124.363281 113.864583 123.484375 L 113.864583 120 L 112.869792 120 L 112.869792 129.875 L 113.864583 129.875 L 113.864583 127.371094 C 113.864583 126.96875 113.846354 126.539062 113.8125 126.082031 L 113.877604 126.082031 C 114.013021 126.421875 114.200521 126.683594 114.442708 126.867188 C 114.682292 127.054688 114.963542 127.148438 115.286458 127.148438 C 116.419271 127.148438 116.986979 126.289062 116.986979 124.578125 Z M 120.416667 119.875 C 119.6875 119.875 119.119792 120.191406 118.708333 120.828125 C 118.296875 121.464844 118.09375 122.34375 118.09375 123.460938 C 118.09375 124.605469 118.283854 125.507812 118.664062 126.164062 C 119.044271 126.820312 119.567708 127.148438 120.234375 127.148438 C 120.851562 127.148438 121.341146 126.867188 121.697917 126.304688 C 122.057292 125.742188 122.236979 124.964844 122.236979 123.980469 L 122.236979 123.171875 L 119.117188 123.171875 C 119.130208 122.492188 119.255208 121.96875 119.484375 121.601562 C 119.716146 121.234375 120.041667 121.054688 120.463542 121.054688 C 120.739583 121.054688 120.997396 121.09375 121.234375 121.171875 C 121.473958 121.25 121.729167 121.378906 122.002604 121.5625 L 122.002604 120.347656 C 121.760417 120.175781 121.515625 120.054688 121.265625 119.980469 C 121.018229 119.910156 120.734375 119.875 120.416667 119.875 Z M 120.234375 126.015625 C 119.919271 126.015625 119.664062 125.867188 119.473958 125.566406 C 119.283854 125.265625 119.171875 124.828125 119.135417 124.253906 L 121.257812 124.253906 C 121.252604 124.832031 121.158854 125.273438 120.979167 125.570312 C 120.799479 125.867188 120.549479 126.015625 120.234375 126.015625 Z M 125.408854 119.875 C 124.679688 119.875 124.111979 120.191406 123.700521 120.828125 C 123.289062 121.464844 123.085938 122.34375 123.085938 123.460938 C 123.085938 124.605469 123.276042 125.507812 123.65625 126.164062 C 124.036458 126.820312 124.559896 127.148438 125.226562 127.148438 C 125.84375 127.148438 126.333333 126.867188 126.690104 126.304688 C 127.049479 125.742188 127.229167 124.964844 127.229167 123.980469 L 127.229167 123.171875 L 124.109375 123.171875 C 124.122396 122.492188 124.247396 121.96875 124.476562 121.601562 C 124.708333 121.234375 125.033854 121.054688 125.455729 121.054688 C 125.731771 121.054688 125.989583 121.09375 126.226562 121.171875 C 126.466146 121.25 126.721354 121.378906 126.994792 121.5625 L 126.994792 120.347656 C 126.752604 120.175781 126.507812 120.054688 126.257812 119.980469 C 126.010417 119.910156 125.726562 119.875 125.408854 119.875 Z M 125.226562 126.015625 C 124.911458 126.015625 124.65625 125.867188 124.466146 125.566406 C 124.276042 125.265625 124.164062 124.828125 124.127604 124.253906 L 126.25 124.253906 C 126.244792 124.832031 126.151042 125.273438 125.971354 125.570312 C 125.791667 125.867188 125.541667 126.015625 125.226562 126.015625 Z M 129.320312 123.707031 L 129.882812 124.761719 L 131.296875 127.019531 L 132.442708 127.019531 L 130.559896 124.003906 L 132.5625 120 L 131.393229 120 L 129.890625 123.078125 L 129.346354 122.40625 L 129.346354 120 L 128.359375 120 L 128.359375 129.875 L 129.346354 129.875 L 129.346354 125.058594 L 129.294271 123.707031 Z M 136.559896 120 L 135.565104 120 L 135.565104 127.019531 L 136.559896 127.019531 Z M 135.505208 128.878906 C 135.505208 129.148438 135.554688 129.351562 135.651042 129.496094 C 135.75 129.640625 135.888021 129.710938 136.067708 129.710938 C 136.242188 129.710938 136.380208 129.640625 136.476562 129.496094 C 136.572917 129.351562 136.622396 129.148438 136.622396 128.878906 C 136.622396 128.625 136.575521 128.425781 136.476562 128.28125 C 136.380208 128.132812 136.244792 128.0625 136.067708 128.0625 C 135.888021 128.0625 135.75 128.132812 135.651042 128.28125 C 135.554688 128.425781 135.505208 128.625 135.505208 128.878906 Z M 141.125 122 C 141.125 121.3125 140.958333 120.789062 140.627604 120.421875 C 140.294271 120.054688 139.817708 119.875 139.195312 119.875 C 138.572917 119.875 138.072917 120.015625 137.692708 120.296875 L 137.692708 121.585938 C 138.244792 121.207031 138.755208 121.015625 139.229167 121.015625 C 139.841146 121.015625 140.148438 121.292969 140.148438 121.847656 C 140.148438 122.023438 140.114583 122.171875 140.046875 122.292969 C 139.979167 122.410156 139.867188 122.53125 139.713542 122.660156 C 139.557292 122.785156 139.341146 122.929688 139.065104 123.089844 C 138.526042 123.402344 138.161458 123.71875 137.971354 124.03125 C 137.78125 124.34375 137.684896 124.75 137.684896 125.25 C 137.684896 125.851562 137.846354 126.316406 138.169271 126.648438 C 138.492188 126.980469 138.932292 127.148438 139.489583 127.148438 C 140.039062 127.148438 140.559896 126.980469 141.049479 126.644531 L 140.729167 125.523438 C 140.223958 125.835938 139.799479 125.992188 139.453125 125.992188 C 138.929688 125.992188 138.666667 125.769531 138.666667 125.320312 C 138.666667 125.101562 138.736979 124.914062 138.872396 124.761719 C 139.010417 124.609375 139.307292 124.398438 139.768229 124.132812 C 140.153646 123.90625 140.434896 123.703125 140.609375 123.515625 C 140.783854 123.328125 140.914062 123.117188 141 122.871094 C 141.083333 122.628906 141.125 122.339844 141.125 122 Z M 143.742188 120 " transform="matrix(1.5,0,0,-1,0,150)"/>
<path style="fill:none;stroke-width:1;stroke-linecap:butt;stroke-linejoin:miter;stroke:rgb(0%,0%,0%);stroke-opacity:1;stroke-miterlimit:10;" d="M 23.085069 112.148438 C 23.284722 112.148438 23.449653 112.125 23.579861 112.085938 L 23.482639 110.695312 C 23.342014 110.746094 23.194444 110.769531 23.043403 110.769531 C 22.645833 110.769531 22.322917 110.574219 22.076389 110.1875 C 21.829861 109.796875 21.704861 109.289062 21.704861 108.667969 L 21.704861 105 L 20.711806 105 L 20.711806 112.019531 L 21.489583 112.019531 L 21.621528 110.78125 L 21.671875 110.78125 C 21.826389 111.203125 22.029514 111.535156 22.279514 111.78125 C 22.529514 112.023438 22.796875 112.148438 23.085069 112.148438 Z M 26.491319 104.875 C 25.763889 104.875 25.194444 105.191406 24.782986 105.828125 C 24.373264 106.464844 24.168403 107.34375 24.168403 108.460938 C 24.168403 109.605469 24.357639 110.507812 24.739583 111.164062 C 25.119792 111.820312 25.642361 112.148438 26.309028 112.148438 C 26.927083 112.148438 27.414931 111.867188 27.772569 111.304688 C 28.131944 110.742188 28.310764 109.964844 28.310764 108.980469 L 28.310764 108.171875 L 25.190972 108.171875 C 25.204861 107.492188 25.328125 106.96875 25.560764 106.601562 C 25.791667 106.234375 26.118056 106.054688 26.538194 106.054688 C 26.814236 106.054688 27.071181 106.09375 27.309028 106.171875 C 27.548611 106.25 27.803819 106.378906 28.078125 106.5625 L 28.078125 105.347656 C 27.835069 105.175781 27.590278 105.054688 27.342014 104.980469 C 27.09375 104.910156 26.809028 104.875 26.491319 104.875 Z M 26.309028 111.015625 C 25.993056 111.015625 25.739583 110.867188 25.548611 110.566406 C 25.359375 110.265625 25.244792 109.828125 25.208333 109.253906 L 27.333333 109.253906 C 27.328125 109.832031 27.234375 110.273438 27.053819 110.570312 C 26.873264 110.867188 26.625 111.015625 26.309028 111.015625 Z M 31.020833 104.875 C 30.435764 104.875 29.980903 105.191406 29.652778 105.824219 C 29.326389 106.460938 29.163194 107.351562 29.163194 108.496094 C 29.163194 109.648438 29.328125 110.542969 29.659722 111.1875 C 29.991319 111.828125 30.449653 112.148438 31.036458 112.148438 C 31.652778 112.148438 32.119792 111.808594 32.442708 111.125 L 32.493056 111.125 C 32.444444 111.628906 32.421875 112.027344 32.421875 112.320312 L 32.421875 114.875 L 33.420139 114.875 L 33.420139 105 L 32.640625 105 L 32.467014 105.921875 L 32.421875 105.921875 C 32.102431 105.222656 31.635417 104.875 31.020833 104.875 Z M 31.286458 106.078125 C 31.696181 106.078125 31.993056 106.25 32.180556 106.597656 C 32.366319 106.941406 32.461806 107.5 32.467014 108.273438 L 32.467014 108.484375 C 32.467014 109.367188 32.371528 109.996094 32.180556 110.371094 C 31.987847 110.742188 31.6875 110.929688 31.277778 110.929688 C 30.928819 110.929688 30.659722 110.714844 30.470486 110.289062 C 30.28125 109.863281 30.185764 109.257812 30.185764 108.472656 C 30.185764 107.695312 30.277778 107.101562 30.461806 106.691406 C 30.645833 106.28125 30.920139 106.078125 31.286458 106.078125 Z M 35.873264 106.363281 C 35.737847 105.578125 35.489583 104.5625 35.128472 103.324219 L 34.397569 103.324219 C 34.592014 104.46875 34.736111 105.527344 34.833333 106.511719 L 35.810764 106.511719 Z M 43.350694 105 L 42.732639 107.578125 L 40.368056 107.578125 L 39.762153 105 L 38.696181 105 L 41.010417 114.320312 L 42.111111 114.320312 L 44.425347 105 Z M 42.467014 108.882812 L 41.887153 111.410156 C 41.845486 111.578125 41.786458 111.847656 41.711806 112.210938 C 41.637153 112.574219 41.585069 112.839844 41.557292 113.011719 C 41.480903 112.492188 41.369792 111.921875 41.222222 111.304688 L 40.663194 108.882812 Z M 49.253472 105 L 48.255208 105 L 48.255208 109.316406 C 48.255208 109.859375 48.182292 110.261719 48.036458 110.527344 C 47.892361 110.796875 47.661458 110.929688 47.345486 110.929688 C 46.925347 110.929688 46.618056 110.742188 46.421875 110.371094 C 46.227431 110 46.130208 109.375 46.130208 108.496094 L 46.130208 105 L 45.137153 105 L 45.137153 112.019531 L 45.914931 112.019531 L 46.053819 111.101562 L 46.105903 111.101562 C 46.246528 111.433594 46.446181 111.691406 46.706597 111.875 C 46.965278 112.054688 47.253472 112.148438 47.569444 112.148438 C 48.692708 112.148438 49.253472 111.289062 49.253472 109.578125 Z M 52.217014 104.875 C 51.631944 104.875 51.177083 105.191406 50.848958 105.824219 C 50.522569 106.460938 50.359375 107.351562 50.359375 108.496094 C 50.359375 109.648438 50.524306 110.542969 50.855903 111.1875 C 51.1875 111.828125 51.645833 112.148438 52.232639 112.148438 C 52.848958 112.148438 53.315972 111.808594 53.638889 111.125 L 53.689236 111.125 C 53.640625 111.628906 53.618056 112.027344 53.618056 112.320312 L 53.618056 114.875 L 54.616319 114.875 L 54.616319 105 L 53.836806 105 L 53.663194 105.921875 L 53.618056 105.921875 C 53.298611 105.222656 52.831597 104.875 52.217014 104.875 Z M 52.482639 106.078125 C 52.892361 106.078125 53.189236 106.25 53.376736 106.597656 C 53.5625 106.941406 53.657986 107.5 53.663194 108.273438 L 53.663194 108.484375 C 53.663194 109.367188 53.567708 109.996094 53.376736 110.371094 C 53.184028 110.742188 52.883681 110.929688 52.473958 110.929688 C 52.125 110.929688 51.855903 110.714844 51.666667 110.289062 C 51.477431 109.863281 51.381944 109.257812 51.381944 108.472656 C 51.381944 107.695312 51.473958 107.101562 51.657986 106.691406 C 51.842014 106.28125 52.116319 106.078125 52.482639 106.078125 Z M 62.232639 105 L 61.234375 105 L 61.234375 109.328125 C 61.234375 109.867188 61.166667 110.265625 61.03125 110.53125 C 60.895833 110.796875 60.684028 110.929688 60.395833 110.929688 C 60.012153 110.929688 59.730903 110.742188 59.552083 110.367188 C 59.373264 109.992188 59.282986 109.371094 59.282986 108.496094 L 59.282986 105 L 58.289931 105 L 58.289931 112.019531 L 59.067708 112.019531 L 59.206597 111.101562 L 59.258681 111.101562 C 59.388889 111.433594 59.576389 111.691406 59.822917 111.875 C 60.069444 112.054688 60.342014 112.148438 60.637153 112.148438 C 61.357639 112.148438 61.833333 111.78125 62.067708 111.042969 L 62.135417 111.042969 C 62.274306 111.390625 62.46875 111.660156 62.720486 111.855469 C 62.970486 112.050781 63.258681 112.148438 63.583333 112.148438 C 64.142361 112.148438 64.548611 111.9375 64.803819 111.511719 C 65.059028 111.089844 65.1875 110.445312 65.1875 109.578125 L 65.1875 105 L 64.192708 105 L 64.192708 109.328125 C 64.192708 109.867188 64.123264 110.265625 63.987847 110.53125 C 63.850694 110.796875 63.637153 110.929688 63.350694 110.929688 C 62.963542 110.929688 62.680556 110.746094 62.501736 110.386719 C 62.322917 110.023438 62.232639 109.46875 62.232639 108.71875 Z M 65.864583 112.019531 L 66.947917 112.019531 L 67.899306 108.039062 C 68.043403 107.472656 68.140625 106.941406 68.1875 106.441406 L 68.222222 106.441406 C 68.246528 106.671875 68.293403 106.957031 68.361111 107.289062 C 68.428819 107.621094 68.788194 109.199219 69.435764 112.019531 L 70.510417 112.019531 L 68.508681 104.066406 C 68.145833 102.605469 67.538194 101.875 66.689236 101.875 C 66.46875 101.875 66.255208 101.914062 66.046875 101.984375 L 66.046875 103.164062 C 66.196181 103.113281 66.366319 103.089844 66.559028 103.089844 C 67.038194 103.089844 67.375 103.507812 67.569444 104.339844 L 67.743056 105 Z M 74.467014 105 L 73.473958 105 L 73.473958 114.875 L 74.467014 114.875 Z M 76.883681 105 L 75.890625 105 L 75.890625 112.019531 L 76.883681 112.019531 Z M 75.829861 113.878906 C 75.829861 114.148438 75.878472 114.351562 75.975694 114.496094 C 76.072917 114.640625 76.213542 114.710938 76.394097 114.710938 C 76.567708 114.710938 76.704861 114.640625 76.802083 114.496094 C 76.899306 114.351562 76.947917 114.148438 76.947917 113.878906 C 76.947917 113.625 76.899306 113.425781 76.802083 113.28125 C 76.704861 113.132812 76.567708 113.0625 76.394097 113.0625 C 76.213542 113.0625 76.074653 113.132812 75.975694 113.28125 C 75.878472 113.425781 75.829861 113.625 75.829861 113.878906 Z M 80.678819 104.875 C 80.086806 104.875 79.626736 105.191406 79.298611 105.832031 L 79.239583 105.832031 C 79.279514 105.238281 79.298611 104.878906 79.298611 104.753906 L 79.298611 101.875 L 78.305556 101.875 L 78.305556 112.019531 L 79.109375 112.019531 C 79.131944 111.890625 79.177083 111.578125 79.248264 111.082031 L 79.298611 111.082031 C 79.609375 111.792969 80.074653 112.148438 80.696181 112.148438 C 81.279514 112.148438 81.734375 111.828125 82.060764 111.195312 C 82.387153 110.5625 82.548611 109.667969 82.548611 108.523438 C 82.548611 107.375 82.383681 106.480469 82.052083 105.835938 C 81.720486 105.195312 81.262153 104.875 80.678819 104.875 Z M 80.4375 110.929688 C 80.041667 110.929688 79.753472 110.753906 79.572917 110.40625 C 79.390625 110.0625 79.298611 109.507812 79.298611 108.746094 L 79.298611 108.523438 C 79.298611 107.667969 79.388889 107.050781 79.569444 106.667969 C 79.75 106.285156 80.045139 106.09375 80.454861 106.09375 C 80.798611 106.09375 81.064236 106.304688 81.25 106.726562 C 81.435764 107.148438 81.529514 107.753906 81.529514 108.535156 C 81.529514 109.324219 81.4375 109.917969 81.251736 110.324219 C 81.067708 110.726562 80.795139 110.929688 80.4375 110.929688 Z M 86.850694 107 C 86.850694 106.3125 86.684028 105.789062 86.350694 105.421875 C 86.017361 105.054688 85.541667 104.875 84.920139 104.875 C 84.296875 104.875 83.796875 105.015625 83.418403 105.296875 L 83.418403 106.585938 C 83.96875 106.207031 84.480903 106.015625 84.954861 106.015625 C 85.565972 106.015625 85.873264 106.292969 85.873264 106.847656 C 85.873264 107.023438 85.838542 107.171875 85.770833 107.292969 C 85.703125 107.410156 85.592014 107.53125 85.435764 107.660156 C 85.28125 107.785156 85.065972 107.929688 84.789931 108.089844 C 84.25 108.402344 83.885417 108.71875 83.694444 109.03125 C 83.505208 109.34375 83.409722 109.75 83.409722 110.25 C 83.409722 110.851562 83.571181 111.316406 83.894097 111.648438 C 84.217014 111.980469 84.65625 112.148438 85.211806 112.148438 C 85.762153 112.148438 86.282986 111.980469 86.774306 111.644531 L 86.451389 110.523438 C 85.946181 110.835938 85.522569 110.992188 85.178819 110.992188 C 84.654514 110.992188 84.390625 110.769531 84.390625 110.320312 C 84.390625 110.101562 84.460069 109.914062 84.597222 109.761719 C 84.734375 109.609375 85.03125 109.398438 85.491319 109.132812 C 85.878472 108.90625 86.157986 108.703125 86.333333 108.515625 C 86.508681 108.328125 86.638889 108.117188 86.722222 107.871094 C 86.807292 107.628906 86.850694 107.339844 86.850694 107 Z M 93.104167 105 L 92.90625 105.976562 L 92.871528 105.976562 C 92.645833 105.550781 92.418403 105.257812 92.190972 105.105469 C 91.961806 104.949219 91.668403 104.875 91.310764 104.875 C 90.850694 104.875 90.491319 105.058594 90.232639 105.429688 C 89.975694 105.804688 89.845486 106.332031 89.845486 107.011719 C 89.845486 107.734375 90.026042 108.28125 90.383681 108.648438 C 90.741319 109.015625 91.288194 109.21875 92.020833 109.253906 L 92.829861 109.289062 L 92.829861 109.664062 C 92.829861 110.113281 92.760417 110.449219 92.619792 110.671875 C 92.480903 110.894531 92.263889 111.003906 91.970486 111.003906 C 91.730903 111.003906 91.5 110.953125 91.28125 110.847656 C 91.060764 110.742188 90.848958 110.617188 90.645833 110.472656 L 90.324653 111.539062 C 90.578125 111.738281 90.855903 111.886719 91.157986 111.992188 C 91.460069 112.09375 91.744792 112.148438 92.012153 112.148438 C 92.607639 112.148438 93.057292 111.953125 93.361111 111.5625 C 93.663194 111.171875 93.815972 110.5625 93.815972 109.730469 L 93.815972 105 Z M 91.623264 106.015625 C 91.984375 106.015625 92.274306 106.167969 92.493056 106.46875 C 92.711806 106.773438 92.821181 107.195312 92.821181 107.742188 L 92.821181 108.351562 L 92.220486 108.3125 C 91.751736 108.289062 91.411458 108.171875 91.197917 107.960938 C 90.984375 107.75 90.878472 107.429688 90.878472 107 C 90.878472 106.6875 90.940972 106.445312 91.064236 106.273438 C 91.189236 106.101562 91.375 106.015625 91.623264 106.015625 Z M 97.576389 112.148438 C 97.776042 112.148438 97.940972 112.125 98.071181 112.085938 L 97.973958 110.695312 C 97.833333 110.746094 97.685764 110.769531 97.534722 110.769531 C 97.137153 110.769531 96.814236 110.574219 96.567708 110.1875 C 96.321181 109.796875 96.196181 109.289062 96.196181 108.667969 L 96.196181 105 L 95.203125 105 L 95.203125 112.019531 L 95.980903 112.019531 L 96.112847 110.78125 L 96.163194 110.78125 C 96.317708 111.203125 96.520833 111.535156 96.770833 111.78125 C 97.020833 112.023438 97.288194 112.148438 97.576389 112.148438 Z M 100.984375 104.875 C 100.256944 104.875 99.6875 105.191406 99.276042 105.828125 C 98.866319 106.464844 98.661458 107.34375 98.661458 108.460938 C 98.661458 109.605469 98.850694 110.507812 99.232639 111.164062 C 99.612847 111.820312 100.135417 112.148438 100.802083 112.148438 C 101.420139 112.148438 101.907986 111.867188 102.265625 111.304688 C 102.625 110.742188 102.803819 109.964844 102.803819 108.980469 L 102.803819 108.171875 L 99.684028 108.171875 C 99.697917 107.492188 99.821181 106.96875 100.053819 106.601562 C 100.284722 106.234375 100.611111 106.054688 101.03125 106.054688 C 101.307292 106.054688 101.564236 106.09375 101.802083 106.171875 C 102.041667 106.25 102.296875 106.378906 102.571181 106.5625 L 102.571181 105.347656 C 102.328125 105.175781 102.083333 105.054688 101.835069 104.980469 C 101.586806 104.910156 101.302083 104.875 100.984375 104.875 Z M 100.802083 111.015625 C 100.486111 111.015625 100.232639 110.867188 100.041667 110.566406 C 99.852431 110.265625 99.737847 109.828125 99.701389 109.253906 L 101.826389 109.253906 C 101.821181 109.832031 101.727431 110.273438 101.546875 110.570312 C 101.366319 110.867188 101.118056 111.015625 100.802083 111.015625 Z M 107.928819 106.078125 C 108.171875 106.078125 108.413194 106.136719 108.65625 106.25 L 108.65625 105.125 C 108.546875 105.054688 108.404514 104.996094 108.230903 104.945312 C 108.057292 104.898438 107.876736 104.875 107.690972 104.875 C 106.748264 104.875 106.277778 105.617188 106.277778 107.109375 L 106.277778 110.890625 L 105.638889 110.890625 L 105.638889 111.550781 L 106.324653 112.097656 L 106.663194 113.582031 L 107.276042 113.582031 L 107.276042 112.019531 L 108.609375 112.019531 L 108.609375 110.890625 L 107.276042 110.890625 L 107.276042 107.132812 C 107.276042 106.773438 107.336806 106.507812 107.456597 106.335938 C 107.576389 106.164062 107.734375 106.078125 107.928819 106.078125 Z M 113.708333 105 L 112.710069 105 L 112.710069 109.316406 C 112.710069 109.859375 112.637153 110.261719 112.491319 110.527344 C 112.347222 110.796875 112.116319 110.929688 111.800347 110.929688 C 111.381944 110.929688 111.076389 110.742188 110.880208 110.367188 C 110.684028 109.992188 110.585069 109.363281 110.585069 108.484375 L 110.585069 105 L 109.592014 105 L 109.592014 114.875 L 110.585069 114.875 L 110.585069 112.371094 C 110.585069 111.96875 110.569444 111.539062 110.534722 111.082031 L 110.598958 111.082031 C 110.734375 111.421875 110.921875 111.683594 111.163194 111.867188 C 111.404514 112.054688 111.685764 112.148438 112.006944 112.148438 C 113.140625 112.148438 113.708333 111.289062 113.708333 109.578125 Z M 116.086806 105 L 115.09375 105 L 115.09375 112.019531 L 116.086806 112.019531 Z M 115.032986 113.878906 C 115.032986 114.148438 115.081597 114.351562 115.178819 114.496094 C 115.276042 114.640625 115.416667 114.710938 115.597222 114.710938 C 115.770833 114.710938 115.907986 114.640625 116.005208 114.496094 C 116.102431 114.351562 116.151042 114.148438 116.151042 113.878906 C 116.151042 113.625 116.102431 113.425781 116.005208 113.28125 C 115.907986 113.132812 115.770833 113.0625 115.597222 113.0625 C 115.416667 113.0625 115.277778 113.132812 115.178819 113.28125 C 115.081597 113.425781 115.032986 113.625 115.032986 113.878906 Z M 121.625 105 L 120.626736 105 L 120.626736 109.316406 C 120.626736 109.859375 120.553819 110.261719 120.407986 110.527344 C 120.263889 110.796875 120.032986 110.929688 119.717014 110.929688 C 119.296875 110.929688 118.989583 110.742188 118.793403 110.371094 C 118.598958 110 118.501736 109.375 118.501736 108.496094 L 118.501736 105 L 117.508681 105 L 117.508681 112.019531 L 118.286458 112.019531 L 118.425347 111.101562 L 118.477431 111.101562 C 118.618056 111.433594 118.817708 111.691406 119.078125 111.875 C 119.336806 112.054688 119.625 112.148438 119.940972 112.148438 C 121.064236 112.148438 121.625 111.289062 121.625 109.578125 Z M 122.861111 105.792969 C 122.861111 106.101562 122.914931 106.339844 123.022569 106.503906 C 123.130208 106.667969 123.284722 106.75 123.487847 106.75 C 123.694444 106.75 123.850694 106.667969 123.958333 106.496094 C 124.064236 106.324219 124.118056 106.089844 124.118056 105.792969 C 124.118056 105.492188 124.064236 105.253906 123.954861 105.078125 C 123.847222 104.902344 123.690972 104.816406 123.487847 104.816406 C 123.284722 104.816406 123.130208 104.902344 123.022569 105.078125 C 122.914931 105.25 122.861111 105.488281 122.861111 105.792969 Z M 127.748264 105 L 127.748264 114.28125 L 128.760417 114.28125 L 128.760417 105 Z M 131.828125 105 " transform="matrix(2.25,0,0,1,0,15)"/>
<path style="fill:none;stroke-width:1;stroke-linecap:butt;stroke-linejoin:miter;stroke:rgb(0%,0%,0%);stroke-opacity:1;stroke-miterlimit:10;" d="M 24.828704 90 L 23.829861 90 L 23.829861 94.316406 C 23.829861 94.859375 23.756944 95.261719 23.612269 95.527344 C 23.466435 95.796875 23.236111 95.929688 22.920139 95.929688 C 22.502315 95.929688 22.195602 95.742188 22 95.367188 C 21.803241 94.992188 21.704861 94.363281 21.704861 93.484375 L 21.704861 90 L 20.710648 90 L 20.710648 99.875 L 21.704861 99.875 L 21.704861 97.371094 C 21.704861 96.96875 21.688657 96.539062 21.655093 96.082031 L 21.717593 96.082031 C 21.853009 96.421875 22.041667 96.683594 22.283565 96.867188 C 22.524306 97.054688 22.805556 97.148438 23.127315 97.148438 C 24.261574 97.148438 24.828704 96.289062 24.828704 94.578125 Z M 29.140046 90 L 28.94213 90.976562 L 28.907407 90.976562 C 28.681713 90.550781 28.454861 90.257812 28.226852 90.105469 C 27.997685 89.949219 27.704861 89.875 27.346065 89.875 C 26.886574 89.875 26.527778 90.058594 26.269676 90.429688 C 26.011574 90.804688 25.881944 91.332031 25.881944 92.011719 C 25.881944 92.734375 26.061343 93.28125 26.418981 93.648438 C 26.777778 94.015625 27.324074 94.21875 28.056713 94.253906 L 28.865741 94.289062 L 28.865741 94.664062 C 28.865741 95.113281 28.795139 95.449219 28.65625 95.671875 C 28.516204 95.894531 28.299769 96.003906 28.005787 96.003906 C 27.766204 96.003906 27.537037 95.953125 27.31713 95.847656 C 27.097222 95.742188 26.885417 95.617188 26.681713 95.472656 L 26.359954 96.539062 C 26.614583 96.738281 26.892361 96.886719 27.193287 96.992188 C 27.49537 97.09375 27.78125 97.148438 28.048611 97.148438 C 28.643519 97.148438 29.09375 96.953125 29.396991 96.5625 C 29.700231 96.171875 29.851852 95.5625 29.851852 94.730469 L 29.851852 90 Z M 27.659722 91.015625 C 28.020833 91.015625 28.310185 91.167969 28.528935 91.46875 C 28.747685 91.773438 28.856481 92.195312 28.856481 92.742188 L 28.856481 93.351562 L 28.255787 93.3125 C 27.788194 93.289062 27.446759 93.171875 27.233796 92.960938 C 27.020833 92.75 26.914352 92.429688 26.914352 92 C 26.914352 91.6875 26.976852 91.445312 27.100694 91.273438 C 27.224537 91.101562 27.41088 91.015625 27.659722 91.015625 Z M 32.306713 90 L 30.528935 97.019531 L 31.578704 97.019531 L 32.530093 92.9375 C 32.694444 92.253906 32.792824 91.699219 32.826389 91.277344 L 32.861111 91.277344 C 32.886574 91.582031 32.984954 92.136719 33.157407 92.9375 L 34.108796 97.019531 L 35.166667 97.019531 L 33.380787 90 Z M 37.921296 89.875 C 37.193287 89.875 36.625 90.191406 36.21412 90.828125 C 35.803241 91.464844 35.59838 92.34375 35.59838 93.460938 C 35.59838 94.605469 35.788194 95.507812 36.170139 96.164062 C 36.550926 96.820312 37.074074 97.148438 37.739583 97.148438 C 38.357639 97.148438 38.844907 96.867188 39.203704 96.304688 C 39.5625 95.742188 39.740741 94.964844 39.740741 93.980469 L 39.740741 93.171875 L 36.622685 93.171875 C 36.636574 92.492188 36.759259 91.96875 36.990741 91.601562 C 37.222222 91.234375 37.547454 91.054688 37.967593 91.054688 C 38.244213 91.054688 38.502315 91.09375 38.740741 91.171875 C 38.979167 91.25 39.234954 91.378906 39.508102 91.5625 L 39.508102 90.347656 C 39.266204 90.175781 39.020833 90.054688 38.771991 89.980469 C 38.524306 89.910156 38.240741 89.875 37.921296 89.875 Z M 37.739583 96.015625 C 37.423611 96.015625 37.170139 95.867188 36.980324 95.566406 C 36.789352 95.265625 36.675926 94.828125 36.638889 94.253906 L 38.763889 94.253906 C 38.758102 94.832031 38.664352 95.273438 38.483796 95.570312 C 38.303241 95.867188 38.055556 96.015625 37.739583 96.015625 Z M 46.050926 90 L 45.853009 90.976562 L 45.818287 90.976562 C 45.592593 90.550781 45.365741 90.257812 45.137731 90.105469 C 44.908565 89.949219 44.615741 89.875 44.256944 89.875 C 43.797454 89.875 43.438657 90.058594 43.180556 90.429688 C 42.922454 90.804688 42.792824 91.332031 42.792824 92.011719 C 42.792824 92.734375 42.972222 93.28125 43.329861 93.648438 C 43.688657 94.015625 44.234954 94.21875 44.967593 94.253906 L 45.77662 94.289062 L 45.77662 94.664062 C 45.77662 95.113281 45.706019 95.449219 45.56713 95.671875 C 45.427083 95.894531 45.210648 96.003906 44.916667 96.003906 C 44.677083 96.003906 44.447917 95.953125 44.228009 95.847656 C 44.008102 95.742188 43.796296 95.617188 43.592593 95.472656 L 43.270833 96.539062 C 43.525463 96.738281 43.803241 96.886719 44.104167 96.992188 C 44.40625 97.09375 44.69213 97.148438 44.959491 97.148438 C 45.554398 97.148438 46.00463 96.953125 46.30787 96.5625 C 46.611111 96.171875 46.762731 95.5625 46.762731 94.730469 L 46.762731 90 Z M 44.570602 91.015625 C 44.931713 91.015625 45.221065 91.167969 45.439815 91.46875 C 45.658565 91.773438 45.767361 92.195312 45.767361 92.742188 L 45.767361 93.351562 L 45.166667 93.3125 C 44.699074 93.289062 44.357639 93.171875 44.144676 92.960938 C 43.931713 92.75 43.825231 92.429688 43.825231 92 C 43.825231 91.6875 43.887731 91.445312 44.011574 91.273438 C 44.135417 91.101562 44.321759 91.015625 44.570602 91.015625 Z M 51.394676 90 L 50.400463 90 L 50.400463 99.875 L 51.394676 99.875 Z M 56.96875 93.523438 C 56.96875 92.375 56.773148 91.480469 56.380787 90.835938 C 55.988426 90.195312 55.44213 89.875 54.743056 89.875 C 54.305556 89.875 53.918981 90.019531 53.583333 90.316406 C 53.247685 90.613281 52.989583 91.039062 52.809028 91.59375 C 52.628472 92.148438 52.538194 92.789062 52.538194 93.523438 C 52.538194 94.660156 52.732639 95.550781 53.122685 96.1875 C 53.511574 96.828125 54.060185 97.148438 54.768519 97.148438 C 55.445602 97.148438 55.981481 96.820312 56.376157 96.167969 C 56.770833 95.511719 56.96875 94.632812 56.96875 93.523438 Z M 53.5625 93.523438 C 53.5625 91.902344 53.961806 91.09375 54.759259 91.09375 C 55.549769 91.09375 55.944444 91.902344 55.944444 93.523438 C 55.944444 95.125 55.547454 95.929688 54.751157 95.929688 C 54.333333 95.929688 54.03125 95.722656 53.84375 95.304688 C 53.65625 94.890625 53.5625 94.296875 53.5625 93.523438 Z M 62.229167 90 L 61.230324 90 L 61.230324 94.316406 C 61.230324 94.859375 61.157407 95.261719 61.012731 95.527344 C 60.866898 95.796875 60.636574 95.929688 60.320602 95.929688 C 59.900463 95.929688 59.592593 95.742188 59.398148 95.371094 C 59.203704 95 59.105324 94.375 59.105324 93.496094 L 59.105324 90 L 58.111111 90 L 58.111111 97.019531 L 58.890046 97.019531 L 59.030093 96.101562 L 59.081019 96.101562 C 59.222222 96.433594 59.421296 96.691406 59.681713 96.875 C 59.940972 97.054688 60.229167 97.148438 60.545139 97.148438 C 61.667824 97.148438 62.229167 96.289062 62.229167 94.578125 Z M 67.564815 97.019531 L 67.564815 96.203125 L 66.765046 95.980469 C 66.837963 95.832031 66.899306 95.648438 66.946759 95.433594 C 66.99537 95.21875 67.019676 94.988281 67.019676 94.75 C 67.019676 94.023438 66.853009 93.457031 66.519676 93.039062 C 66.186343 92.625 65.728009 92.417969 65.144676 92.417969 C 64.99537 92.417969 64.859954 92.433594 64.738426 92.46875 C 64.524306 92.269531 64.416667 92.039062 64.416667 91.769531 C 64.416667 91.609375 64.466435 91.488281 64.56713 91.410156 C 64.666667 91.328125 64.850694 91.289062 65.119213 91.289062 L 65.936343 91.289062 C 66.452546 91.289062 66.84375 91.125 67.112269 90.792969 C 67.380787 90.464844 67.513889 89.988281 67.513889 89.367188 C 67.513889 88.570312 67.295139 87.957031 66.858796 87.523438 C 66.421296 87.09375 65.789352 86.875 64.962963 86.875 C 64.325231 86.875 63.837963 87.046875 63.502315 87.382812 C 63.166667 87.722656 62.998843 88.207031 62.998843 88.832031 C 62.998843 89.265625 63.090278 89.625 63.271991 89.921875 C 63.453704 90.214844 63.708333 90.417969 64.03588 90.53125 C 63.902778 90.617188 63.793981 90.753906 63.708333 90.941406 C 63.621528 91.128906 63.578704 91.328125 63.578704 91.535156 C 63.578704 91.796875 63.628472 92.019531 63.726852 92.203125 C 63.825231 92.382812 63.972222 92.5625 64.166667 92.742188 C 63.924769 92.898438 63.728009 93.152344 63.576389 93.507812 C 63.425926 93.859375 63.350694 94.273438 63.350694 94.75 C 63.350694 95.511719 63.510417 96.101562 63.831019 96.519531 C 64.150463 96.9375 64.606481 97.148438 65.199074 97.148438 C 65.332176 97.148438 65.471065 97.132812 65.615741 97.105469 C 65.761574 97.078125 65.87037 97.050781 65.944444 97.019531 Z M 63.887731 88.90625 C 63.887731 88.585938 63.983796 88.339844 64.177083 88.164062 C 64.37037 87.992188 64.642361 87.90625 64.991898 87.90625 C 65.533565 87.90625 65.9375 88.023438 66.202546 88.253906 C 66.467593 88.488281 66.600694 88.796875 66.600694 89.179688 C 66.600694 89.484375 66.527778 89.703125 66.381944 89.832031 C 66.237269 89.960938 65.966435 90.023438 65.571759 90.023438 L 64.818287 90.023438 C 64.533565 90.023438 64.306713 89.925781 64.138889 89.722656 C 63.971065 89.523438 63.887731 89.25 63.887731 88.90625 Z M 64.314815 94.75 C 64.314815 94.308594 64.390046 93.96875 64.541667 93.734375 C 64.69213 93.496094 64.908565 93.375 65.190972 93.375 C 65.766204 93.375 66.054398 93.839844 66.054398 94.761719 C 66.054398 95.21875 65.982639 95.570312 65.840278 95.816406 C 65.697917 96.066406 65.481481 96.1875 65.190972 96.1875 C 64.902778 96.1875 64.685185 96.066406 64.537037 95.820312 C 64.388889 95.574219 64.314815 95.21875 64.314815 94.75 Z M 72.428241 91.078125 C 72.670139 91.078125 72.913194 91.136719 73.15625 91.25 L 73.15625 90.125 C 73.046296 90.054688 72.903935 89.996094 72.730324 89.945312 C 72.556713 89.898438 72.377315 89.875 72.190972 89.875 C 71.248843 89.875 70.777778 90.617188 70.777778 92.109375 L 70.777778 95.890625 L 70.138889 95.890625 L 70.138889 96.550781 L 70.824074 97.097656 L 71.162037 98.582031 L 71.77662 98.582031 L 71.77662 97.019531 L 73.108796 97.019531 L 73.108796 95.890625 L 71.77662 95.890625 L 71.77662 92.132812 C 71.77662 91.773438 71.835648 91.507812 71.956019 91.335938 C 72.076389 91.164062 72.232639 91.078125 72.428241 91.078125 Z M 78.241898 93.523438 C 78.241898 92.375 78.046296 91.480469 77.653935 90.835938 C 77.261574 90.195312 76.715278 89.875 76.016204 89.875 C 75.578704 89.875 75.19213 90.019531 74.856481 90.316406 C 74.520833 90.613281 74.262731 91.039062 74.082176 91.59375 C 73.90162 92.148438 73.811343 92.789062 73.811343 93.523438 C 73.811343 94.660156 74.005787 95.550781 74.395833 96.1875 C 74.784722 96.828125 75.333333 97.148438 76.041667 97.148438 C 76.71875 97.148438 77.25463 96.820312 77.649306 96.167969 C 78.043981 95.511719 78.241898 94.632812 78.241898 93.523438 Z M 74.835648 93.523438 C 74.835648 91.902344 75.234954 91.09375 76.032407 91.09375 C 76.822917 91.09375 77.217593 91.902344 77.217593 93.523438 C 77.217593 95.125 76.820602 95.929688 76.024306 95.929688 C 75.606481 95.929688 75.304398 95.722656 75.116898 95.304688 C 74.929398 94.890625 74.835648 94.296875 74.835648 93.523438 Z M 83.502315 90 L 82.503472 90 L 82.503472 94.316406 C 82.503472 94.859375 82.430556 95.261719 82.28588 95.527344 C 82.140046 95.796875 81.909722 95.929688 81.59375 95.929688 C 81.173611 95.929688 80.865741 95.742188 80.671296 95.371094 C 80.476852 95 80.378472 94.375 80.378472 93.496094 L 80.378472 90 L 79.384259 90 L 79.384259 97.019531 L 80.163194 97.019531 L 80.303241 96.101562 L 80.354167 96.101562 C 80.49537 96.433594 80.694444 96.691406 80.954861 96.875 C 81.21412 97.054688 81.502315 97.148438 81.818287 97.148438 C 82.940972 97.148438 83.502315 96.289062 83.502315 94.578125 Z M 88.837963 97.019531 L 88.837963 96.203125 L 88.038194 95.980469 C 88.111111 95.832031 88.172454 95.648438 88.219907 95.433594 C 88.268519 95.21875 88.292824 94.988281 88.292824 94.75 C 88.292824 94.023438 88.126157 93.457031 87.792824 93.039062 C 87.459491 92.625 87.001157 92.417969 86.417824 92.417969 C 86.268519 92.417969 86.133102 92.433594 86.011574 92.46875 C 85.797454 92.269531 85.689815 92.039062 85.689815 91.769531 C 85.689815 91.609375 85.739583 91.488281 85.840278 91.410156 C 85.939815 91.328125 86.123843 91.289062 86.392361 91.289062 L 87.209491 91.289062 C 87.725694 91.289062 88.116898 91.125 88.385417 90.792969 C 88.653935 90.464844 88.787037 89.988281 88.787037 89.367188 C 88.787037 88.570312 88.568287 87.957031 88.131944 87.523438 C 87.694444 87.09375 87.0625 86.875 86.236111 86.875 C 85.59838 86.875 85.111111 87.046875 84.775463 87.382812 C 84.439815 87.722656 84.271991 88.207031 84.271991 88.832031 C 84.271991 89.265625 84.363426 89.625 84.545139 89.921875 C 84.726852 90.214844 84.981481 90.417969 85.309028 90.53125 C 85.175926 90.617188 85.06713 90.753906 84.981481 90.941406 C 84.894676 91.128906 84.851852 91.328125 84.851852 91.535156 C 84.851852 91.796875 84.90162 92.019531 85 92.203125 C 85.09838 92.382812 85.24537 92.5625 85.439815 92.742188 C 85.197917 92.898438 85.001157 93.152344 84.849537 93.507812 C 84.699074 93.859375 84.623843 94.273438 84.623843 94.75 C 84.623843 95.511719 84.783565 96.101562 85.104167 96.519531 C 85.423611 96.9375 85.87963 97.148438 86.472222 97.148438 C 86.605324 97.148438 86.744213 97.132812 86.888889 97.105469 C 87.034722 97.078125 87.143519 97.050781 87.217593 97.019531 Z M 85.16088 88.90625 C 85.16088 88.585938 85.256944 88.339844 85.450231 88.164062 C 85.643519 87.992188 85.915509 87.90625 86.265046 87.90625 C 86.806713 87.90625 87.210648 88.023438 87.475694 88.253906 C 87.740741 88.488281 87.873843 88.796875 87.873843 89.179688 C 87.873843 89.484375 87.800926 89.703125 87.655093 89.832031 C 87.510417 89.960938 87.239583 90.023438 86.844907 90.023438 L 86.091435 90.023438 C 85.806713 90.023438 85.579861 89.925781 85.412037 89.722656 C 85.244213 89.523438 85.16088 89.25 85.16088 88.90625 Z M 85.587963 94.75 C 85.587963 94.308594 85.663194 93.96875 85.814815 93.734375 C 85.965278 93.496094 86.181713 93.375 86.46412 93.375 C 87.039352 93.375 87.327546 93.839844 87.327546 94.761719 C 87.327546 95.21875 87.255787 95.570312 87.113426 95.816406 C 86.971065 96.066406 86.75463 96.1875 86.46412 96.1875 C 86.175926 96.1875 85.958333 96.066406 85.810185 95.820312 C 85.662037 95.574219 85.587963 95.21875 85.587963 94.75 Z M 93.006944 90 L 92.866898 90.921875 L 92.81713 90.921875 C 92.678241 90.59375 92.481481 90.339844 92.226852 90.152344 C 91.971065 89.964844 91.679398 89.875 91.353009 89.875 C 90.78588 89.875 90.362269 90.085938 90.083333 90.507812 C 89.803241 90.929688 89.664352 91.570312 89.664352 92.429688 L 89.664352 97.019531 L 90.666667 97.019531 L 90.666667 92.691406 C 90.666667 92.152344 90.740741 91.75 90.886574 91.480469 C 91.033565 91.210938 91.263889 91.078125 91.576389 91.078125 C 91.994213 91.078125 92.300926 91.265625 92.497685 91.640625 C 92.693287 92.015625 92.791667 92.644531 92.791667 93.523438 L 92.791667 97.019531 L 93.790509 97.019531 L 93.790509 90 Z M 97.251157 89.875 C 96.523148 89.875 95.954861 90.191406 95.543981 90.828125 C 95.133102 91.464844 94.928241 92.34375 94.928241 93.460938 C 94.928241 94.605469 95.118056 95.507812 95.5 96.164062 C 95.880787 96.820312 96.403935 97.148438 97.069444 97.148438 C 97.6875 97.148438 98.174769 96.867188 98.533565 96.304688 C 98.892361 95.742188 99.070602 94.964844 99.070602 93.980469 L 99.070602 93.171875 L 95.952546 93.171875 C 95.966435 92.492188 96.08912 91.96875 96.320602 91.601562 C 96.552083 91.234375 96.877315 91.054688 97.297454 91.054688 C 97.574074 91.054688 97.832176 91.09375 98.070602 91.171875 C 98.309028 91.25 98.564815 91.378906 98.837963 91.5625 L 98.837963 90.347656 C 98.596065 90.175781 98.350694 90.054688 98.101852 89.980469 C 97.854167 89.910156 97.570602 89.875 97.251157 89.875 Z M 97.069444 96.015625 C 96.753472 96.015625 96.5 95.867188 96.310185 95.566406 C 96.119213 95.265625 96.005787 94.828125 95.96875 94.253906 L 98.09375 94.253906 C 98.087963 94.832031 97.994213 95.273438 97.813657 95.570312 C 97.633102 95.867188 97.385417 96.015625 97.069444 96.015625 Z M 99.489583 90 " transform="matrix(3.375,0,0,-1,0,135)"/>
</g>
</svg>
